<?xml version="1.0" encoding="UTF-8"?>
<svg id="Capa_2" data-name="Capa 2" xmlns="http://www.w3.org/2000/svg" viewBox="0 0 207.58 33.66">
  <defs>
    <style>
      .cls-1 {
        fill: #1d1d1b;
      }
    </style>
  </defs>
  <g id="Capa_1-2" data-name="Capa 1">
    <g>
      <path class="cls-1" d="M27.7,33.66c-1.54,0-2.79-.29-3.75-.88-.96-.58-1.68-1.3-2.17-2.15-.49-.85-1.05-2.03-1.66-3.54-.62-1.57-1.22-2.84-1.8-3.82-.59-.97-1.45-1.79-2.59-2.45-1.14-.66-2.65-.99-4.53-.99-.65,0-1.45.02-2.4.07-.96.05-1.56.13-1.8.25v5.5c0,1.48.05,2.84.16,4.09.11,1.25.27,2.32.49,3.21H0c.19-.96.33-2.1.44-3.44.11-1.34.16-2.78.16-4.32V8.37c0-1.54-.05-2.99-.16-4.35-.11-1.36-.25-2.5-.44-3.42h17.16c2.13,0,4.05.34,5.76,1.02,1.71.68,3.05,1.64,4.02,2.89s1.46,2.69,1.46,4.32-.48,3.12-1.43,4.46c-.96,1.34-2.27,2.39-3.93,3.14-1.67.76-3.53,1.13-5.6,1.13h-.88v.28h.14c1.45,0,2.66.25,3.63.76.97.51,1.75,1.11,2.34,1.8.58.69,1.2,1.6,1.85,2.71.46.77.84,1.36,1.13,1.76.29.4.64.74,1.04,1.02.4.28.86.42,1.39.42.96,0,1.7-.24,2.22-.72.52-.48.97-1.16,1.34-2.06l.46,8.14c-.46.59-1.09,1.06-1.87,1.43s-1.63.56-2.52.56ZM15.54,14.94c1.29,0,2.42-.17,3.38-.51.96-.34,1.69-.82,2.22-1.43.52-.62.79-1.36.79-2.22,0-.74-.25-1.42-.74-2.03-.49-.62-1.18-1.11-2.06-1.48-.88-.37-1.87-.55-2.98-.55H6.98v8.23h8.55Z"/>
      <path class="cls-1" d="M34.77,32.97c.22-.92.39-2.06.51-3.42.12-1.36.19-2.81.19-4.35V8.37c0-1.54-.06-2.99-.19-4.35-.12-1.36-.29-2.5-.51-3.42h25.34l1.02,7.03c-.49-.28-1.17-.48-2.03-.6-.86-.12-2.13-.19-3.79-.19h-13.5v7.21h11.61c1.94,0,3.53-.08,4.76-.23v6.24c-1.11-.18-2.7-.28-4.76-.28h-11.61v6.94h13.41c2.13,0,3.7-.08,4.72-.25,1.02-.17,1.82-.41,2.4-.72l-1.02,7.21h-26.54Z"/>
      <path class="cls-1" d="M84.39,33.57c-3.33,0-6.4-.65-9.2-1.97-2.81-1.31-5.03-3.22-6.68-5.73-1.65-2.51-2.47-5.5-2.47-8.95s.83-6.46,2.5-9.02c1.66-2.56,3.9-4.52,6.71-5.87,2.8-1.36,5.87-2.03,9.2-2.03,1.97,0,3.89.19,5.76.55,1.86.37,3.46.88,4.79,1.53l-.19,6.8c-1.2-.8-2.62-1.45-4.25-1.94-1.63-.49-3.33-.74-5.09-.74-2.47,0-4.68.46-6.64,1.36-1.96.91-3.49,2.17-4.6,3.79-1.11,1.62-1.66,3.48-1.66,5.57s.56,4.02,1.69,5.6c1.12,1.57,2.67,2.77,4.65,3.61,1.97.83,4.18,1.25,6.61,1.25,2.19,0,4.27-.35,6.24-1.04,1.97-.69,3.64-1.63,4.99-2.8v7.31c-1.79.89-3.68,1.57-5.69,2.03-2,.46-4.22.69-6.66.69Z"/>
      <path class="cls-1" d="M100.95,32.97c.22-.89.38-2.02.49-3.38.11-1.36.16-2.82.16-4.39V8.37c0-1.57-.05-3.04-.16-4.39-.11-1.36-.27-2.48-.49-3.38h7.68c-.22.89-.38,2.02-.49,3.38-.11,1.36-.16,2.82-.16,4.39v16.83c0,1.57.05,3.04.16,4.39.11,1.36.27,2.48.49,3.38h-7.68Z"/>
      <path class="cls-1" d="M114.68,32.97c.22-.92.39-2.06.51-3.42.12-1.36.19-2.81.19-4.35V8.37c0-1.54-.06-2.99-.19-4.35-.12-1.36-.29-2.5-.51-3.42h15.21c2.62,0,5,.46,7.14,1.39,2.14.92,3.84,2.28,5.09,4.07,1.25,1.79,1.87,3.92,1.87,6.38s-.48,4.59-1.43,6.38c-.96,1.79-2.27,3.14-3.93,4.07-1.66.93-3.55,1.39-5.64,1.39-1.82,0-3.51-.33-5.09-.99-1.57-.66-2.88-1.63-3.91-2.91-1.03-1.28-1.66-2.8-1.87-4.55h-.37l-.05,9.57c0,1.54.05,2.98.16,4.3.11,1.33.27,2.42.49,3.28h-7.68ZM130.59,18.54c1.29,0,2.47-.25,3.51-.76,1.05-.51,1.88-1.23,2.5-2.15.62-.92.92-1.96.92-3.1,0-1.2-.33-2.27-.99-3.19-.66-.92-1.63-1.65-2.91-2.17-1.28-.52-2.78-.79-4.51-.79h-1.34c-1.14,0-2.19.03-3.14.09-.96.06-1.91.15-2.87.28v3.33c.03,1.73.49,3.24,1.39,4.53.89,1.29,2.02,2.27,3.38,2.94,1.36.66,2.71.99,4.07.99Z"/>
      <path class="cls-1" d="M147.93,32.97c.21-.92.38-2.06.51-3.42.12-1.36.19-2.81.19-4.35V8.37c0-1.54-.06-2.99-.19-4.35-.12-1.36-.29-2.5-.51-3.42h25.34l1.02,7.03c-.49-.28-1.17-.48-2.04-.6-.86-.12-2.13-.19-3.79-.19h-13.5v7.21h11.61c1.94,0,3.53-.08,4.76-.23v6.24c-1.11-.18-2.7-.28-4.76-.28h-11.61v6.94h13.41c2.13,0,3.7-.08,4.72-.25,1.02-.17,1.82-.41,2.41-.72l-1.02,7.21h-26.54Z"/>
      <path class="cls-1" d="M193.52,33.57c-2.13,0-4.61-.29-7.45-.88-2.84-.59-5.21-1.29-7.12-2.13l.23-7.26c1.82,1.36,4.03,2.4,6.64,3.14,2.6.74,5.11,1.11,7.51,1.11,1.51,0,2.84-.13,3.98-.39,1.14-.26,2.04-.66,2.71-1.2.66-.54.99-1.24.99-2.1,0-.8-.34-1.46-1.02-1.97-.68-.51-1.53-.9-2.57-1.18-1.03-.28-2.46-.58-4.28-.92-2.77-.52-5.04-1.07-6.8-1.64-1.76-.57-3.28-1.51-4.55-2.82-1.28-1.31-1.92-3.12-1.92-5.43,0-1.91.59-3.61,1.78-5.11,1.19-1.5,2.82-2.67,4.9-3.51,2.08-.85,4.43-1.27,7.05-1.27,2.16,0,4.28.22,6.36.65,2.08.43,3.83.96,5.25,1.57v6.98c-1.29-.83-2.97-1.54-5.02-2.13-2.05-.59-4.18-.88-6.4-.88-1.54,0-2.87.13-3.98.39-1.11.26-1.97.66-2.57,1.18-.6.52-.9,1.17-.9,1.94,0,.86.35,1.56,1.06,2.1.71.54,1.6.96,2.66,1.25,1.06.29,2.54.62,4.42.99,2.71.49,4.95,1.03,6.71,1.6,1.76.57,3.26,1.5,4.51,2.8,1.25,1.29,1.87,3.05,1.87,5.27,0,1.97-.59,3.71-1.78,5.2-1.19,1.5-2.84,2.64-4.97,3.45-2.13.8-4.56,1.2-7.31,1.2Z"/>
    </g>
  </g>
</svg>